<svg xmlns="http://www.w3.org/2000/svg" xmlns:xlink="http://www.w3.org/1999/xlink" viewBox="0 0 260 70" version="1.1" class="injected-svg" data-src="/content/dam/empire/logos/navigation-logos/caesars_entertainment_logo_wide_nav.svg">
    <title>caesars_entertainment_logo_wide_nav</title>
    <rect fill-opacity="0" x="0" y="0" width="260" height="70"></rect>
    <path fill="#FFFFFF" d="M41.5169895,8.77883419 C43.9804677,7.94171685 46.5484592,7.74010744 49.1110564,8.36684974 C50.9046385,8.80546821 52.6958606,9.27813777 54.4479745,9.85599484 C56.2317795,10.4439661 57.6882221,11.6060859 59.0846538,12.8363079 C60.3603896,13.9603309 61.7045647,15.0122061 62.9223126,16.1952286 C63.8534918,17.100111 64.6643123,18.1364777 65.4751327,19.1566618 C66.4535115,20.3878952 67.4113248,21.639357 68.3135101,22.9268927 C69.5767717,24.7305889 70.6370754,26.6418326 71.1886356,28.803571 C71.6161284,30.4764571 72.2226424,32.1152922 72.506851,33.8104295 C72.9110812,36.2138969 73.2047297,38.6490554 72.7077861,41.0963509 C72.3945835,42.6377526 72.2738876,44.2317481 71.8207721,45.727636 C71.2506692,47.6088743 70.4604143,49.4209991 69.4176419,51.117485 C68.4962397,52.6177557 67.503701,54.054307 66.2417879,55.2811576 C64.4225833,57.0504656 62.3522097,58.4661143 59.9878505,59.4074077 C58.3874493,60.0446014 56.7934539,60.7478743 55.1327048,61.1723329 C52.2316195,61.9140398 49.2860318,62.2596078 46.2649249,61.776824 C42.4785113,61.1723329 38.9891177,59.7957924 35.6864993,57.9330968 C33.3568654,56.6192642 31.3576283,54.8776016 29.599783,52.8348735 C28.8054824,51.9121227 27.7401216,51.2267182 26.8268108,50.4017378 C25.4846585,49.1883728 24.4880742,47.7228275 23.9432568,45.9970105 C23.4328276,44.3804266 22.9797121,42.742603 22.5795275,41.0953395 C22.3893809,40.3121645 22.3806152,39.4851613 22.2895876,38.6780494 C22.3044217,36.8271536 22.8391249,35.1485361 23.588586,33.4739643 C24.3801895,31.7036449 24.959058,29.8369035 25.6083887,28.0042133 C26.3480727,25.9152971 26.9475067,23.7680557 27.8227208,21.7394874 C28.5708333,20.0062533 29.6193371,18.4031551 30.9200212,16.9959349 C32.1199007,15.6972736 33.2429123,14.3180359 34.5210081,13.1023109 C36.5401365,11.1823016 38.8758388,9.67596236 41.5169895,8.77883419 Z M47.1988013,10.0353531 C43.3918222,9.27881205 40.0433528,10.3917095 36.9608865,12.5922189 C35.1578646,13.8794175 33.6589424,15.4734129 32.2068827,17.1233736 C29.7130619,19.9577052 28.2080712,23.3183116 27.0365115,26.8535562 C26.4239291,28.7017549 25.8639404,30.5678219 25.2351753,32.4102892 C24.7014835,33.9752907 24.0922724,35.5146696 23.931794,37.1801387 C23.7318703,39.2636607 24.2402766,41.1752416 25.4071164,42.9394925 C25.4071164,41.8653661 25.4667901,40.787194 25.393968,39.7177876 C25.2645064,37.8041838 25.3551969,35.9155285 25.8571976,34.0636213 C26.1275835,33.0663627 26.3999922,32.0562928 26.8136623,31.1146622 C27.5442436,29.4505417 28.3051674,27.7897926 29.1975756,26.2092827 C30.315193,24.2302739 31.7554529,22.4704058 33.3427056,20.8396621 C34.6717094,19.4742472 36.0334158,18.1165865 37.8118266,17.3667883 C39.1199278,16.8152281 40.4991654,16.4022322 41.8787402,16.05599 C45.2963232,15.19797 48.6801922,15.4147507 52.0097817,16.5603506 C53.9206883,17.2181098 55.8376634,17.8573262 57.7489072,18.5150854 C58.635584,18.8198595 59.5290036,19.1124965 60.3937664,19.4732358 C62.2969188,20.2678736 63.7968524,21.6471112 65.2782433,23.0212917 C65.7829411,23.4895785 66.2235824,24.1196922 66.4639628,24.7616057 C67.0327172,26.2810934 67.4487473,27.8568834 67.9544565,29.4003079 C68.6230041,31.4423618 68.6536838,33.550495 68.4200461,35.6333427 C68.1139235,38.3685553 67.249835,40.9702607 65.9993846,43.431379 C64.139049,47.0930509 61.4628357,50.0376272 58.1079607,52.3824323 C55.4749013,54.223551 52.6014615,55.555252 49.4690986,56.2639192 C46.5562134,56.9230269 43.6021972,56.9975347 40.638404,56.6047672 C40.4206119,56.5758856 40.2023703,56.5501132 39.9839039,56.525939 L38.6722066,56.3879865 L38.6722066,56.3879865 L38.6462468,56.5831903 C39.2096069,56.7527714 39.7628528,56.9786549 40.3380128,57.0824939 C42.3021874,57.4361532 44.2758019,57.7362073 46.2419994,58.0770553 C48.996429,58.5541077 51.708379,58.2452879 54.3849294,57.5882031 C56.6400554,57.0346201 58.8291021,56.2919018 60.8549732,55.1028108 C62.920964,53.8904572 64.7786026,52.4471631 66.1588516,50.4786056 C67.7231788,48.2484279 68.6439068,45.7434816 69.2261466,43.0844625 C69.7456786,40.712349 69.7851239,38.3368642 69.546092,35.945871 C69.3842651,34.3265901 69.0380228,32.7204576 68.9625036,31.0994909 C68.8445047,28.5689219 68.2154025,26.2082713 66.778514,24.1422805 C64.7843339,21.2745721 63.0123288,18.1887343 60.090678,16.1048752 C58.1693201,14.7344032 56.2034598,13.4101193 54.1657887,12.2220397 C52.0303472,10.9769836 49.5985601,10.5120683 47.1988013,10.0353531 Z M48.0220959,17.8492349 C46.6145385,17.653694 45.165513,17.6553797 43.7397502,17.714042 C42.4434488,17.7669729 41.1373705,17.9257656 39.8666918,18.1890715 C38.3064102,18.5123883 36.8378306,19.1728445 35.6484025,20.2392167 C32.8565504,22.7428145 30.5437736,25.6270428 28.8894301,29.0267574 C27.400285,32.0876467 26.4869742,35.2699063 26.5237224,38.6244442 C26.5139453,41.0858996 26.8261365,43.4226134 27.7269732,45.6500939 C28.1483975,46.6928664 28.7512029,47.5967373 29.8378035,48.103458 C30.3226101,48.3300157 30.7312231,48.7136804 31.1944528,48.9928319 C32.5595306,49.8154523 33.8622375,50.7972024 35.3220515,51.3936022 C37.5768404,52.3146673 39.9347939,53.0530027 42.4137806,53.0453091 C44.3068188,53.0395172 46.2146911,52.9889462 48.0868267,52.7391259 C49.286369,52.5789846 50.4383746,52.0365272 51.6021801,51.6366798 C54.1910742,50.7466315 56.5864502,49.4830327 58.5998472,47.6179771 C62.488414,44.0159789 65.0698911,39.6648567 65.6018972,34.3188359 C65.8089008,32.2339653 65.9825277,30.0533471 64.8113051,28.1144579 C64.3423441,27.3380257 63.7944924,26.6037359 63.2291095,25.8923716 C61.917974,24.2434224 60.2514936,23.0553428 58.3348556,22.1915914 C55.8889086,21.0888082 53.4682471,19.9293855 51.0128603,18.8495277 C50.0513384,18.4264177 49.0469999,17.9915077 48.0220959,17.8492349 Z M236.862586,46.2702957 L236.862586,47.2415946 L234.820869,47.2415946 L234.820869,52.6894315 L233.788548,52.6894315 L233.788548,47.2415946 L231.746494,47.2415946 L231.746494,46.2702957 L236.862586,46.2702957 Z M137.37124,46.2702957 C138.138907,46.2702957 138.795318,46.5039334 139.219439,46.9277177 C139.553544,47.2624972 139.737622,47.7304468 139.737622,48.2459331 C139.737622,49.1909351 139.171902,49.8797111 138.210043,50.1426799 L138.210043,50.1426799 L139.921363,52.4193828 L139.786508,52.6894315 L138.859711,52.6894315 L137.09546,50.3260837 L135.610698,50.3260837 L135.610698,52.6894315 L134.58748,52.6894315 L134.58748,46.2702957 Z M219.878476,46.2700597 L223.459572,50.8258256 L223.459572,46.2700597 L224.465933,46.2700597 L224.465933,52.6891955 L223.667924,52.6891955 L219.991081,48.0201508 L219.991081,52.6891955 L218.985394,52.6891955 L218.985394,46.2700597 L219.878476,46.2700597 Z M98.1681554,46.2700597 L101.749251,50.8258256 L101.749251,46.2700597 L102.755275,46.2700597 L102.755275,52.6891955 L101.957603,52.6891955 L98.28076,48.0198137 L98.28076,52.6891955 L97.2747358,52.6891955 L97.2747358,46.2700597 L98.1681554,46.2700597 Z M180.005158,46.2700597 L183.586254,50.8258256 L183.586254,46.2700597 L184.592278,46.2700597 L184.592278,52.6891955 L183.794606,52.6891955 L180.117763,48.0198137 L180.117763,52.6891955 L179.111738,52.6891955 L179.111738,46.2700597 L180.005158,46.2700597 Z M193.755628,46.2702957 L195.880955,49.454241 L198.006282,46.2702957 L198.960387,46.2702957 L198.960387,52.6894315 L197.936832,52.6894315 L197.936832,48.1420941 L195.979063,51.0209282 L195.765991,51.0209282 L193.808222,48.1495112 L193.808222,52.6894315 L192.80186,52.6894315 L192.80186,46.2702957 L193.755628,46.2702957 Z M161.494852,46.227007 L164.418525,52.6892967 L163.309336,52.6892967 L162.596961,51.0818156 L159.505054,51.0818156 L158.78425,52.6892967 L157.709787,52.6892967 L160.634135,46.227007 L161.494852,46.227007 Z M127.167107,46.2702283 L127.167107,47.2327615 L123.456887,47.2327615 L123.456887,48.9724013 L126.776025,48.9724013 L126.776025,49.9349345 L123.456887,49.9349345 L123.456887,51.7264937 L127.210598,51.7264937 L127.210598,52.6893641 L122.433669,52.6893641 L122.433669,46.2702283 L127.167107,46.2702283 Z M115.152265,46.2702957 L115.152265,47.2415946 L113.110211,47.2415946 L113.110211,52.6894315 L112.078227,52.6894315 L112.078227,47.2415946 L110.036173,47.2415946 L110.036173,46.2702957 L115.152265,46.2702957 Z M151.830007,46.2702957 L151.830007,47.2415946 L149.78829,47.2415946 L149.78829,52.6894315 L148.755969,52.6894315 L148.755969,47.2415946 L146.713915,47.2415946 L146.713915,46.2702957 L151.830007,46.2702957 Z M171.926082,46.2701272 L171.926082,52.6892629 L170.902864,52.6892629 L170.902864,46.2701272 L171.926082,46.2701272 Z M211.564583,46.2702283 L211.564583,47.2327615 L207.8547,47.2327615 L207.8547,48.9724013 L211.173838,48.9724013 L211.173838,49.9349345 L207.8547,49.9349345 L207.8547,51.7264937 L211.608411,51.7264937 L211.608411,52.6893641 L206.831482,52.6893641 L206.831482,46.2702283 L211.564583,46.2702283 Z M89.854262,46.2702283 L89.854262,47.2327615 L86.144042,47.2327615 L86.144042,48.9724013 L89.4635173,48.9724013 L89.4635173,49.9349345 L86.144042,49.9349345 L86.144042,51.7264937 L89.8980901,51.7264937 L89.8980901,52.6893641 L85.1208236,52.6893641 L85.1208236,46.2702283 L89.854262,46.2702283 Z M161.055222,47.6069189 L159.926142,50.1192824 L162.177222,50.1192824 L161.055222,47.6069189 Z M137.318984,47.2415946 L135.610698,47.2415946 L135.610698,49.371979 L137.310218,49.371979 C138.158124,49.371979 138.705976,48.9471832 138.705976,48.2894241 C138.705976,47.617168 138.200604,47.2415946 137.318984,47.2415946 L137.318984,47.2415946 Z M43.4487314,22.6531017 C43.6058384,23.0394635 43.960172,23.5060646 44.3869905,23.6301319 C44.4861095,23.5326986 44.5012808,23.3071523 44.6907532,23.4484137 C45.5460761,23.9352432 46.3228455,23.3395177 47.1741227,23.2717526 C47.7371456,23.2296102 48.7478898,23.3530033 49.0317612,23.4851619 C49.0317612,23.4851619 51.1736084,24.0202023 51.8381103,24.778429 C51.8381103,24.778429 53.5302134,25.8124358 54.3932904,26.9792756 C55.2570418,28.1451039 54.7732466,28.6535102 55.2826644,29.361166 L55.6970088,29.9909426 C55.9141267,31.1267655 55.8180419,32.4375638 54.9000111,33.1064486 L55.3733549,32.8384227 C55.412126,33.3437948 55.4033603,34.1030329 55.1720827,34.6255991 C55.3504294,34.6717872 55.4394343,34.5703082 55.6302552,34.5622168 L55.6720605,34.5622168 C55.1896139,35.0790517 55.755334,35.9252718 54.9920502,36.2465657 C54.8204462,36.2556685 54.6131054,36.2556685 54.4883638,36.10699 C53.8649929,35.2048047 54.9758675,34.2068718 54.2166294,33.3437948 C54.0595224,33.4995532 54.0895278,33.764882 53.9856888,33.9540172 C53.9071353,34.0831416 53.8649929,34.2591285 53.7301371,34.3336363 C53.6691148,34.3461104 53.6148354,34.3117222 53.6026984,34.265197 C53.9351179,33.2955838 53.7604796,32.2700055 53.1903768,31.4703106 C53.0980005,31.2980324 53.1822854,31.0431549 53.0312469,30.9049277 C52.5838628,31.3155636 52.5252006,31.9096034 52.4914866,32.500946 C52.4456356,32.5296029 52.4011332,32.5363457 52.3428081,32.5296029 C52.2602089,31.8101472 52.0892792,31.1099085 51.5168164,30.5849823 C51.0960663,30.2013176 50.4551641,29.8931721 50.4551641,29.2569899 C50.4018961,29.1046029 50.5111293,28.9458102 50.4241473,28.8170229 C50.2110751,28.8864736 50.0907163,29.1282026 49.9986773,29.3075608 C49.8375246,29.6470603 49.8614615,30.1113014 49.9905859,30.4572065 C49.5067908,30.0431992 49.3618208,29.3362177 49.3426038,28.6535102 C49.2070738,28.0675618 48.9066825,27.519373 48.381082,27.1212113 C48.1764383,27.176165 48.267466,27.4768934 48.1713813,27.6316405 C47.9761775,28.1508353 48.1100219,28.7499321 48.4043446,29.1791107 C48.3945676,29.2010248 48.4181674,29.2394587 48.381082,29.2569899 L48.3308482,29.2569899 C47.8939155,28.7671262 47.7509683,28.1110528 47.8261504,27.4671164 C47.6461179,27.2284216 47.4006804,27.0689547 47.1569285,26.9263447 C47.2324478,25.9594286 46.5035522,25.2457043 45.7679139,24.6870642 C45.5440532,24.4554494 45.4257173,24.1715779 45.2514162,23.9136662 C45.1310574,23.932546 45.0710466,24.0660533 45.0194642,24.1479782 C44.9254023,24.3064337 44.9506878,24.5316429 44.815832,24.6371676 C44.6560278,23.9352432 43.8367789,23.8013988 43.5019994,23.1945477 C43.3509609,23.1722965 43.3765835,23.3506433 43.3051099,23.4278482 C43.1210318,24.0137967 43.3765835,24.5522084 43.6422494,25.0218437 C43.6058384,25.0717404 43.5019994,25.0717404 43.4642398,25.0218437 C43.3823149,24.9577872 43.3587151,24.8293371 43.2326249,24.8536111 C43.1048491,25.3866286 43.4355829,25.8744695 43.8742014,26.1654208 C44.4645326,26.5288572 45.3131127,26.6037022 45.5892299,27.3615917 L45.5352876,27.3919343 C45.1522972,26.9398302 44.6533307,26.6775357 44.0808679,26.6431475 L44.0269256,26.6940556 C44.4180074,27.0996344 44.3418138,27.6997426 44.7615525,28.1002643 C45.4172888,28.6248534 46.2601375,28.7381322 47.1238889,28.6902584 C47.1569285,28.7367837 47.1670427,28.7843204 47.1569285,28.8338799 L47.092872,28.9117591 C46.7547211,28.9775013 46.3794849,28.8473654 46.0780822,28.9458102 C46.5979513,29.7303338 47.4006804,30.1864835 48.3510766,30.0297136 C48.5324576,29.9764456 48.7478898,29.9160976 48.9215166,30.0297136 C48.9966987,30.1413068 48.8618429,30.2013176 48.7620496,30.1864835 C48.1494672,30.1696265 47.549696,30.2545857 47.1569285,30.7137696 C47.1420944,30.7663634 47.1889568,30.7886146 47.2085109,30.8203057 C47.9471835,30.6898327 48.5162749,31.0515834 49.0516524,31.4467109 C49.7444741,31.8920721 50.713413,31.372203 51.2990243,32.0269279 C50.8890626,31.8967921 50.3132284,31.8148672 49.8614615,31.9598372 C49.8260618,31.9726485 49.843256,32.0127681 49.843256,32.0495163 C50.2269207,32.5447742 50.4939352,33.2824354 51.1948482,33.4162797 C51.9773489,33.4537022 52.920328,33.4995532 53.2116165,34.3568989 L53.2116165,34.4091555 C53.0477668,34.4010642 53.0187728,34.2008033 52.881557,34.1380954 C52.5838628,33.8383784 52.1614271,33.748025 51.7332599,33.7918531 L51.680329,33.8522011 C52.1776098,34.079096 52.6115083,34.6100907 52.5838628,35.1670451 C52.5892571,35.7540049 52.9682018,36.3605189 53.5339219,36.6069678 C53.7827308,36.6818128 54.0837964,36.8449883 54.3454166,36.67743 C54.3369881,36.5837052 54.2301149,36.5172887 54.1670698,36.4673921 C54.5264605,36.578311 54.9960958,36.578311 55.2978357,36.2613999 C55.2476019,36.5837052 54.9306908,36.81532 54.6505279,36.9181476 C54.6886246,37.3867715 54.6309738,37.8658467 54.2577604,38.1911863 L54.0467111,38.3172764 C54.0150199,38.3445847 53.978946,38.3654874 53.9405121,38.3803215 L53.9290494,38.3877386 C53.9290494,38.3877386 53.8009364,38.4170697 53.8012735,38.4163954 C53.7436227,38.4147097 53.7604796,38.444378 53.6778805,38.4474123 C53.4165974,38.7558949 52.7467012,38.5286629 52.7622096,39.0535891 C52.8205347,39.1203427 52.920328,39.150011 52.9924759,39.1264112 C52.8660486,39.5171559 52.5572288,39.5242358 52.2929115,39.7892274 C52.1627756,39.9190261 52.0653423,40.029945 51.9793717,40.4540665 C51.5731187,42.459035 53.3690607,43.0321721 53.5959556,44.8645252 C53.6148354,45.0634375 53.4816653,45.2229045 53.323884,45.3129207 C52.8613286,45.4208054 52.3873105,45.2754983 51.938915,45.2994352 C49.6335552,45.4086683 47.7732195,45.9413487 45.8970383,47.1304397 C44.9200081,47.7079596 43.8742014,47.9921682 42.7060131,48.0869044 C42.5913856,48.0970186 42.4875467,48.0268936 42.4352901,47.9200204 C42.5789115,47.1172913 42.9086339,46.4625664 42.7060131,45.5775752 C42.4147246,44.5536826 42.4352901,44.3379133 42.3665136,43.2240045 C42.3007714,42.7027868 41.8436103,42.1994376 41.3520609,42.0025481 C40.6710391,41.7392422 39.9053954,41.6970998 39.1377288,41.6225919 C38.8909427,41.5032446 38.575043,41.3687259 38.4685069,41.0700203 C38.3191541,40.5218315 38.4391757,39.9079005 38.58246,39.3974713 C38.5618945,39.1935019 38.287463,39.0987658 38.311737,38.8715337 C38.2443091,38.5428227 38.7318128,38.3526761 38.5298663,38.0640847 L38.0568596,37.576581 C38.1108019,37.3061951 38.3414053,37.0728946 38.200481,36.7654234 C37.7723138,36.3979413 37.0059958,36.7586806 36.5259092,36.4673921 C36.373185,36.0894587 36.6368281,35.7540049 36.7797752,35.4367567 C37.6064412,34.7395522 37.4253973,33.6290148 38.041014,32.8384227 C38.5382948,32.276074 38.8063206,31.6119092 38.7098988,30.8000773 C38.8228405,30.1864835 39.3868748,29.7596649 39.4290173,29.1046029 C39.4819482,28.2024176 39.8912355,27.4398081 40.3332254,26.6940556 C40.2860258,26.2638656 40.2981629,25.8208643 40.6032741,25.5245187 L41.0563896,25.1597338 C41.0024473,25.3647146 40.8426431,25.7480422 41.0331269,25.9351546 C41.1126919,25.9496516 41.1706799,25.9769599 41.2337249,25.8798637 C41.3564437,25.4051713 41.6709948,24.7413437 41.8436103,24.597048 C41.8709186,24.778429 41.8243933,25.0643233 42.0233056,25.2163732 C42.1642299,25.3562861 42.3543766,25.4631593 42.5644145,25.3926971 C42.7060131,25.2214303 42.3911248,25.1540024 42.382022,24.9955468 C42.224915,24.7248238 42.2812173,24.3195822 42.4757468,24.0802131 C42.5789115,23.874558 42.7906351,24.1847264 42.8546916,23.9514258 C42.8425546,23.4430195 43.0222499,22.9909155 43.3978233,22.6531017 L43.4487314,22.6531017 Z M163.769228,20.1764076 C166.103245,19.7910572 168.122036,20.4471306 168.685396,20.6571685 C168.906223,20.7397677 169.657032,21.0448789 170.034966,21.5037258 L170.034966,21.5037258 L170.102056,21.5853135 L170.102056,26.1215253 L169.426092,26.1215253 L168.257903,23.2342627 C167.258285,21.8674993 165.931978,21.1649006 164.31472,21.1450093 C163.436472,21.1348952 161.870796,21.4207894 161.160106,22.2552097 C160.675299,22.8249754 160.484141,23.4008096 160.539769,24.1229624 C160.59978,24.9078231 160.893091,25.4519663 161.490503,25.8865391 C162.018126,26.2705409 162.840072,26.7142165 164.083779,27.3857983 L164.083779,27.3857983 L164.960679,27.8601536 C165.673055,28.2471897 167.788942,29.4578576 167.809845,29.4699946 C170.59192,30.8290039 170.62024,33.2176372 170.619903,33.318779 C170.684296,34.9029974 169.910224,36.4956444 168.647637,37.3641157 C167.086681,38.4372307 165.877699,38.9662025 164.334611,39.2497368 C163.86093,39.3370559 163.388935,39.3808841 162.915591,39.3808841 C161.689415,39.3808841 160.458181,39.0865613 159.186154,38.4928587 C159.169634,38.4867902 158.380391,38.1725762 157.879064,37.6783297 L157.879064,37.6783297 L157.791408,37.5913477 L157.791408,33.045696 L158.524012,33.045696 L159.636235,35.9258786 C160.145316,36.5991462 161.946315,38.0181663 164.211218,38.0596344 C165.446497,38.0825599 166.658851,37.6709126 167.296044,37.0121421 C168.164516,36.1133282 168.196207,35.2967764 168.126756,34.6855425 C168.056968,34.0699258 167.832771,33.531514 167.441014,33.0399646 C167.102526,32.615506 166.653119,32.2409441 166.026714,31.861325 C165.469423,31.5238484 164.797167,31.1678291 163.780017,30.6290802 L163.780017,30.6290802 L163.306673,30.3782484 C161.743694,29.5495596 160.711036,29.0023822 159.994952,28.5458953 C159.246502,28.0685058 158.84834,27.6477557 158.474453,26.9374028 C158.028417,26.091857 158.025046,25.4408407 158.0564,24.8973718 C158.083034,24.4381878 158.28734,22.8607122 159.790308,21.8398538 C160.807121,21.1487179 161.99284,20.4693818 163.769228,20.1764076 Z M230.85567,20.176239 C233.190361,19.7908886 235.208815,20.446962 235.772176,20.6573371 C235.993002,20.7395991 236.743474,21.0447104 237.121408,21.5038943 L237.121408,21.5038943 L237.188498,21.5854821 L237.188498,26.1213567 L236.512534,26.1213567 L235.344683,23.2340942 C234.344727,21.8676678 233.01842,21.164732 231.401162,21.1448408 C230.518194,21.1350637 228.957575,21.420958 228.246548,22.2553782 C227.762079,22.8248068 227.570583,23.4009782 227.626211,24.1227938 C227.686559,24.9079917 227.979533,25.4517977 228.576945,25.8863705 C229.104231,26.2703724 229.925503,26.7137108 231.168536,27.3849555 L231.168536,27.3849555 L232.047458,27.8603222 C232.759497,28.2470212 234.875384,29.4576891 234.896624,29.4698261 C237.678362,30.8291725 237.706682,33.2174686 237.706682,33.3186104 C237.771076,34.9028289 236.99734,36.4958129 235.734079,37.3642842 C234.173797,38.4373992 232.964478,38.9660339 231.421053,39.2499054 C230.947709,39.3372245 230.475377,39.3807155 230.00237,39.3807155 C228.775857,39.3807155 227.544624,39.0867299 226.272933,38.4930272 C226.256076,38.4869587 225.466833,38.1724076 224.965844,37.6781611 L224.965844,37.6781611 L224.87785,37.5915163 L224.87785,33.0458646 L225.610454,33.0458646 L226.722677,35.9260472 C227.232095,36.5989776 229.032757,38.0183348 231.29766,38.059803 C232.534625,38.0827285 233.745293,37.6710812 234.382487,37.0119735 C235.251295,36.1134968 235.283323,35.2966078 235.213535,34.685711 C235.143748,34.0700943 234.919213,33.5316826 234.527457,33.0401332 C234.188968,32.6156746 233.739562,32.2407755 233.113494,31.8614936 C232.557551,31.5246912 231.887654,31.1696834 230.873539,30.6329573 L230.873539,30.6329573 L230.393115,30.3780798 C228.830136,29.5497281 227.797478,29.0025507 227.081394,28.5460639 C226.332944,28.0686744 225.93512,27.6479243 225.560895,26.9375714 C225.114859,26.0920256 225.111488,25.4410092 225.143179,24.8972032 C225.169813,24.4380193 225.37412,22.8605436 226.87675,21.8396853 C227.8939,21.1488865 229.07962,20.4692133 230.85567,20.176239 Z M95.2551691,20.0805251 C97.3326226,20.0805251 99.3574824,20.5838744 101.110271,21.5362934 L101.110271,21.5362934 L101.317948,21.6522694 L101.317948,26.1224018 L100.758971,26.2538862 L98.8298591,22.3879078 C97.635711,21.482014 96.255462,21.0039502 94.8337448,21.0039502 C90.1330089,21.0039502 87.4372416,24.1791299 87.4372416,29.7149602 C87.4372416,34.0509111 89.7240587,38.4259702 94.8337448,38.4259702 C96.1607258,38.4259702 97.4617471,38.0055573 98.6009414,37.2092338 L98.6009414,37.2092338 L100.758971,32.8844085 L101.317948,33.01623 L101.317948,37.5595217 L101.168933,37.6515608 C99.293763,38.7644582 97.1950697,39.3756921 95.2551691,39.3756921 C88.1044407,39.3756921 84.1663143,35.9493435 84.1663143,29.7281086 C84.1663143,24.1379988 88.8299648,20.0805251 95.2551691,20.0805251 Z M186.203097,19.9774279 L186.352449,20.3735668 L186.154548,20.4726858 L186.165337,20.4858342 L186.366272,20.4099778 L193.062536,38.1114865 L195.378685,38.1114865 L195.378685,39.016706 L187.621779,39.016706 L187.621779,38.1114865 L189.847237,38.1114865 L187.687185,32.401355 L180.933944,32.401355 L178.641058,38.1114865 L181.014857,38.1114865 L181.014857,39.016706 L175.265617,39.016706 L175.265617,38.1114865 L177.665713,38.1114865 L184.416257,21.2980032 L185.712221,20.4062693 L186.203097,19.9774279 Z M148.90994,20.4937907 L148.90994,25.4318728 L148.347255,25.5562772 L146.414434,21.3990102 L138.589764,21.3990102 L138.589764,38.1113516 L146.414434,38.1113516 L148.347255,33.9544218 L148.90994,34.0788263 L148.90994,39.0165711 L133.205309,39.0165711 L133.205309,38.1113516 L135.607091,38.1113516 L135.607091,21.3990102 L133.205309,21.3990102 L133.205309,20.4937907 L148.90994,20.4937907 Z M118.036055,19.9774279 L118.185745,20.3735668 L117.987507,20.4726858 L117.997958,20.4858342 L118.19923,20.4099778 L124.895495,38.1114865 L127.211643,38.1114865 L127.211643,39.016706 L119.454738,39.016706 L119.454738,38.1114865 L121.680196,38.1114865 L119.520143,32.401355 L112.766902,32.401355 L110.474353,38.1114865 L112.847815,38.1114865 L112.847815,39.016706 L107.098913,39.016706 L107.098913,38.1114865 L109.498672,38.1114865 L116.249216,21.2980032 L117.54518,20.4062693 L118.036055,19.9774279 Z M209.716822,20.1759693 C212.850197,20.1759693 216.180123,21.9874198 216.180123,25.3439805 C216.180123,26.7238924 215.244561,28.0313193 213.545041,29.0248694 C212.559583,29.6010408 211.372177,30.0433678 210.185783,30.2901539 L210.185783,30.2901539 L211.508045,30.6310019 L217.139622,38.1114528 L218.729909,38.1114528 L218.729909,39.0166723 L214.367324,39.0166723 L208.11069,30.5116545 L206.165058,30.5116545 L206.165058,38.1114528 L208.552006,38.1114528 L208.552006,39.0166723 L200.7951,39.0166723 L200.7951,38.1114528 L203.182385,38.1114528 L203.182385,21.081526 L200.7951,21.081526 L200.7951,20.1759693 Z M143.761315,26.1880429 L144.320629,26.3191902 L144.320629,33.6256771 L143.761315,33.7571615 L141.879739,29.9724336 L143.761315,26.1880429 Z M116.243821,23.740916 L113.130338,31.4961355 L119.177609,31.4961355 L116.243821,23.740916 Z M184.410863,23.740916 L181.29738,31.4961355 L187.344651,31.4961355 L184.410863,23.740916 Z M208.563805,21.081526 L206.165058,21.081526 L206.165058,29.589578 C209.731319,29.5639554 212.958081,29.0373435 212.958081,25.7674277 C212.958081,24.4077441 212.530251,21.2288559 208.563805,21.081526 L208.563805,21.081526 Z"></path>
</svg>